<?xml version="1.0" encoding="UTF-8"?>
<svg id="Layer_1" data-name="Layer 1" xmlns="http://www.w3.org/2000/svg" viewBox="0 0 100 100">
  <path d="M68.43248,50.01444c0-2.742,.0005-5.4845-.0015-8.227,0-.366-.013-.733-.024-1.099-.0255-.881,.4895-1.434,1.3775-1.475,.0955-.0045,.191-.0005,.28699-.0005,5.9945,.0005,11.9895,.0005,17.984,.003,.2385,0,.4785,.01,.7155,.036,.7595,.0835,1.194,.572,1.1945,1.345,.001,3.1245-.014,6.2495,.0015,9.3745,.013,2.6305-.0345,5.261,.0275,7.891,.014,.572,.0095,1.1475-.11,1.7145-.1675,.7985-.4385,1.062-1.236,1.1485-.2525,.0275-.509,.035-.7635,.035-5.612,.0025-11.224,.0025-16.836,.0045-.3985,0-.797,.021-1.195,.0225-.9255,.0045-1.445-.521-1.4445-1.447,.001-3.1085,.0005-6.2175,.0005-9.326h.0225Zm1.6965,8.8145c.6975,.2005,1.3315,.1565,1.9615,.168,2.228,.0385,4.38049-.306,6.42-1.2425,.2465-.113,.499-.2115,.6915-.415,1.3745-1.454,2.8355-2.8205,4.252-4.232,.994-.9905,1.9745-1.9945,3.0135-2.938,.1295-.118,.266-.2345,.32899-.404,.3945-1.059,.829-2.1055,1.075-3.213,.395-1.7765,.346-3.578,.274-5.38-.00201-.0495-.0285-.0865-.15701-.1125-5.989,5.8225-11.8685,11.8165-17.8595,17.769m18.112-2.501c-.0465-1.661-1.4065-2.617-2.752-2.6005-1.712,.021-2.6945,1.2875-2.6735,2.5495,.029,1.706,1.087,2.7295,2.761,2.803,1.4405,.0635,2.6645-1.258,2.6645-2.752" fill="#0f75b9"/>
  <path d="M51.30373,44.39874c-.0745,.063-.113,.0785-.121,.104-.194,.598-.6345,.661-1.1955,.6455-1.3855-.038-2.7735-.012-4.1605-.0125q-.8365,0-1.257-.7165c-.224,.175-.25,.4725-.451,.6925h-4.72c-.1375-.7235-.1635-1.4535-.211-2.1805-.051-.779-.09-1.559-.184-2.3345-.0265-.2175,.0005-.4,.149-.575,.194-.2285,.3635-.478,.6165-.8155,.1555,1.554,.2765,3.011,.386,4.452,.399,.1445,2.9255,.192,4.241,.09,.098-.1725,.128-.377,.117-.5795-.0205-.3745,.1095-.6785,.3635-.9475,.1405-.1485,.2555-.321,.4265-.5395,.0925,.3345,.063,.6025,.03,.873-.0255,.205-.0575,.4115-.057,.617,.0005,.3825,.1975,.575,.5855,.6025,.0475,.0035,.0955,.001,.1435,.001,1.61,0,3.22,0,4.8305-.0005,.078-.0005,.156-.008,.2405-.012,.1685-.251,.111-.533,.1265-.7935,.014-.238,.0845-.4255,.2445-.5995,.1815-.1965,.34-.4145,.513-.6285,.1605,.1075,.109,.259,.098,.39-.0285,.3335-.0795,.665-.104,.999-.026,.361,.191,.605,.553,.6415,.095,.01,.1915,.0035,.2865,.0035,1.483,0,2.9655,.001,4.448-.0015,.1565-.0005,.319,.034,.479-.0455,.0295-.151,.106-.3135,.081-.459-.124-.72,.4205-1.068,.8545-1.506-.027,.4345-.0535,.8685-.0805,1.3025-.0285,.4615,.1625,.7025,.6115,.7055,1.243,.0085,2.4865-.001,3.73-.0045,.03,0,.06-.018,.1195-.037,.0755-.3195-.033-.6445-.062-.9665-.0375-.411-.1275-.8175-.2-1.225-.063-.3565-.054-.7465-.442-.92,.213-.6185,.5115-1.154,.832-1.4825,.0075,.4815,.315,.708,.6615,.9095,.2455,.1425,.4805,.3035,.7645,.485-.19,.2725-.349,.5445-.5505,.779-.247,.2875-.341,.598-.278,.9675,.0275,.156,.02,.319,.047,.475,.121,.696-.0235,1.361-.2095,2.0255-.0735,.2625-.2285,.3595-.4845,.359-1.451-.0025-2.9015-.005-4.3525,.0005-.4835,.0015-.709-.2975-.855-.735-.2735,.1915-.277,.522-.5245,.734h-1.2495c-1.2115,0-2.424-.02-3.6345,.0085-.571,.014-1.0135-.1005-1.1955-.7455" fill="#0f75b9"/>
  <path d="M18.12024,45.13719c.112-1.9985,.0105-3.951-.0115-5.891,.041-.032,.0655-.067,.0905-.0675,1.0185-.0185,2.037-.035,3.056-.049,.111-.0015,.2225,.011,.3335,.02,.779,.0615,1.225,.3785,1.3865,1.0225,.1675,.669,.022,1.454-.641,1.789-.0415,.021-.083,.0495-.0795,.1075,.845,.4675,1.1475,1.1555,.893,2.008-.182,.61-.626,.94-1.2165,.996-1.2515,.117-2.5085,.0535-3.811,.0645m1.7195-2.436c.002,.436-.0545,.822,.041,1.229,.387-.0045,.7505,.042,1.1105-.0395,.369-.0835,.517-.277,.4985-.637-.018-.343-.204-.5305-.5875-.5495-.332-.0165-.665-.003-1.0625-.003m.006-1.2385c.3355,0,.65,.0215,.96-.006,.3415-.0295,.532-.2525,.5345-.557,.003-.3065-.1845-.5255-.5315-.555-.3105-.027-.625-.006-.963-.006v1.124Z" fill="#0f75b9"/>
  <path d="M35.87843,45.10084h-1.837c-.2545-.5195-.357-1.1075-.647-1.655h-2.0095c-.2915,.5055-.4315,1.0995-.691,1.6495h-1.9205c.899-1.992,1.786-3.957,2.6825-5.9435h2.1115c.762,1.962,1.526,3.928,2.311,5.949m-3.3655-4.4975c-.031,.001-.0615,.0015-.092,.0025-.194,.4945-.388,.989-.588,1.4995h1.207c-.1845-.527-.356-1.014-.527-1.502" fill="#0f75b9"/>
  <path d="M40.44198,58.74329q-.4,.5045-1.037,.3645c-.1385-.0305-.279-.0525-.453-.084,.033-.523,.1535-.9715,.659-1.2285,.141-.0725,.272-.1655,.4065-.251,.066-.042,.1635-.089,.1495-.167-.0525-.2975,.209-.446,.2735-.685,.1785,.041,.139,.1755,.154,.2715,.074,.4715,.1435,.9445,.208,1.418,.0295,.215,.1065,.3505,.358,.35,3.0925-.008,6.1845-.0105,9.277-.0155,.045,0,.0905-.021,.164-.0395,.0895-.3595,.0365-.801,.492-1.0405,.078,.199,.006,.3935-.006,.5845-.023,.373,.0775,.5005,.451,.514,.427,.0145,.855,.003,1.307,.003,.0265-.4365,.1195-.7935,.513-1.0275,.0755,.19,.0065,.355-.0095,.5185-.035,.3605,.0355,.457,.401,.4975,.284,.0315,.57,.0225,.842-.0305,.27-.6125,.7455-.9965,1.3065-1.2785,.301-.151,.474-.059,.593,.2555,.0875,.2315,.109,.463-.0085,.6945-.0475,.0945-.15,.173-.095,.328h1.668c.0815-.3745,.0045-.8235,.495-1.028,.0255,.1785,.0105,.3565-.006,.538-.0365,.4105,.05099,.507,.472,.5145,.381,.0075,.7625,.0015,1.2015,.0015,.0545-.7265-.1255-1.3715-.4115-2,.042-.2485,.1735-.48,.353-.725,.171,.4015,.5815,.486,.8505,.73,.003,.1175-.0595,.1985-.127,.2585-.3325,.296-.3255,.6595-.237,1.05,.104,.461,.0735,.915-.119,1.413-.622,0-1.256,.002-1.8905-.0015-.2255-.0015-.364-.162-.5235-.3705-.135,.378-.4105,.378-.706,.376-1.2115-.0085-2.423-.0035-3.6345-.0035-.319,0-.651,.0385-.8605-.366-.1215,.3155-.298,.3895-.5505,.3715-.301-.0215-.6055-.0055-.908,.0035-.301,.009-.5775-.0315-.7635-.371-.1535,.3455-.4135,.3675-.712,.3665-2.885-.0075-5.7705-.0045-8.6555-.0045q-.6805,0-.881-.705m15.1845-.02c.18-.0265,.3985-.005,.419-.236,.0155-.179-.0925-.3305-.2715-.41-.1325-.059-.25,.004-.367,.044-.1355,.047-.2895,.1075-.2815,.278,.008,.1855,.163,.257,.324,.298,.061,.0155,.125,.019,.177,.026m-15.9795-.369c.261,.0365,.4955,.198,.764,.0745,.005-.2395,.0075-.463-.167-.726-.11,.3495-.3705,.4715-.597,.6515" fill="#0f75b9"/>
  <path d="M26.99733,45.09014h-1.6965c0-.559-.0235-1.0975,.007-1.6335,.0285-.4965-.09-.9235-.3485-1.351-.576-.951-1.1105-1.927-1.659-2.8875,.1185-.14,.253-.082,.373-.0825,.366-.002,.7365,.037,1.0975-.005,.353-.041,.5065,.097,.6365,.405,.2295,.541,.508,1.061,.788,1.6345,.179-.2095,.2515-.4455,.3635-.656,.2015-.38,.398-.7625,.5915-1.146,.0675-.134,.136-.2435,.314-.2415,.553,.0065,1.106,.0025,1.656,.0025,.0525,.1835-.0645,.273-.123,.374-.5685,.977-1.139,1.953-1.7215,2.9215-.1695,.2825-.2625,.566-.244,.9005,.0255,.4605,.0195,.923,.0215,1.3845,.001,.1245,.0335,.256-.056,.3805" fill="#0f75b9"/>
  <path d="M12.15479,39.16484v4.597c.837,.082,1.6595,.0045,2.504,.027v1.2875h-4.378c.1295-1.9665,.101-3.921,.07-5.9115h1.804Z" fill="#0f75b9"/>
  <path d="M57.22704,53.45759h1.5605c.0875-.3565-.199-.559-.3105-.864,.0975-.1665,.2085-.356,.322-.5505,.598,.5835,.676,1.2375,.2645,2.095-.0685,.0515-.1505,.039-.228,.0385-1.6565-.0035-3.313-.0085-4.969-.011-.205-.0005-.4195,.033-.4905-.2875-.142,.2065-.2715,.3075-.495,.306-2.007-.0115-4.014-.007-6.021-.0085-.0615,0-.1235-.0185-.201-.0305-.1305-.695-.124-1.3975-.209-2.09-.0135-.111-.0135-.2225-.024-.3335q-.049-.499,.3845-.9025c.105,.8665,.125,1.726,.3,2.6315,2.0655,.097,4.1265,.026,6.186,.0205q.0335-.6125,.473-.957c.0125,.241,.0245,.4565,.0355,.672,.011,.227,.1435,.3015,.3515,.2825,.182-.016,.3285-.1105,.4745-.21,.4205-.287,.837-.581,1.2675-.8535,.5175-.3285,1.1855-.1,1.424,.455,.0915,.214-.106,.3535-.0955,.5975m-.4775-.073c-.398-.676-.9785-.62-1.6945,.083,.564-.018,1.1115,.1335,1.6945-.083" fill="#0f75b9"/>
  <path d="M15.27148,39.15604h1.7915c-.0035,1.9775-.032,3.9435,.0545,5.932h-1.7915c-.0525-.2105-.102-5.417-.0545-5.932" fill="#0f75b9"/>
  <path d="M61.86353,52.98519c.3255-.242,.401-.594,.454-.9495,.0235-.156,.018-.321-.006-.4775-.0535-.3505,.116-.5615,.448-.7695,.0515,.49,.097,.927,.143,1.3635,.0445,.425,.0895,.85,.1315,1.245,.1525,.1025,.284,.082,.409,.078,.1875-.006,.38,.0385,.6065-.059,0-.654-.1025-1.2905-.432-1.908,.075-.1965,.194-.4,.3575-.637,.1735,.3945,.5545,.483,.8225,.709-.071,.297-.419,.437-.409,.747,.009,.285,.073,.568,.1105,.8525,.008,.063,.0085,.1275,.005,.191-.043,.722-.1325,.807-.85,.807h-1.019c-.093-.4095-.025-.8135-.1345-1.1985-.168-.0325-.1615,.118-.196,.2065-.2955,.765-.859,1.1505-1.667,1.2305-.346,.0345-.688,.0815-1.1115,.0475,.3205-.324,.7085-.366,1.033-.524,.328-.16,.675-.2825,.9565-.5535-.0115-.396-.24-.6745-.503-.933-.0325-.0325-.098-.0805-.117-.069-.285,.1755-.4665-.0585-.671-.1705-.3815-.209-.4285-.3065-.359-.7215,.026-.1535,.033-.318,.134-.45,.667,.0865,1.194,.6325,1.864,1.943" fill="#0f75b9"/>
  <path d="M28.87503,53.95394c-.2555,.0575-.4435,.052-.654,.012-.076-.406,.011-.817-.015-1.225-.0105-.1585-.004-.3185-.019-.4765s-.11-.268-.2655-.2995c-.15-.03-.2805,.0245-.38,.146-.117,.144-.15,.3125-.158,.491-.0195,.4435-.039,.887-.0595,1.355-.2,.065-.3985,.045-.6205,.0115v-2.497c.2825-.051,.5365-.1305,.722,.1455,.525-.354,1.02-.32,1.416,.1255,.221-.2785,.52-.396,.872-.362,.44,.0425,.6725,.2665,.6825,.705,.0145,.619,.0035,1.2385,.0035,1.8595-.244,.075-.4425,.058-.685,.02,0-.3075,.0005-.605,0-.903-.0005-.2545,.0045-.5095-.004-.764-.006-.177-.095-.3035-.279-.335-.173-.03-.3105,.034-.4105,.1795-.1145,.1655-.1375,.3585-.1425,.5475-.011,.412-.0035,.825-.0035,1.264" fill="#0f75b9"/>
  <path d="M32.62884,59.45894c-.144-.015-.22,.1115-.3335,.161-.649,.2825-1.325-.0775-1.4505-.7755-.1805-1.007,.401-1.728,1.4225-1.7605,.3515-.012,.6955,.0465,1.0275,.117,.0815,.131,.0495,.2615,.0485,.3865-.0045,.731-.0135,1.463-.0195,2.195-.006,.737-.2965,1.0525-1.0265,1.089-.382,.019-.7575-.0345-1.1215-.1505-.066-.1645-.0735-.317-.039-.5075,.2195,.041,.4305,.0935,.645,.117,.6915,.074,.916-.1605,.847-.8715m.0355-1.7975c-.116-.015-.192-.03-.269-.035-.838-.056-1.0105,.6765-.8735,1.1745,.054,.198,.187,.3295,.3925,.3705,.2165,.042,.41-.0015,.556-.181,.1245-.1525,.189-.33,.193-.5255,.0045-.2515,.001-.5035,.001-.8035" fill="#0f75b9"/>
  <path d="M35.35679,52.32204h.4295c.137,.366-.0435,.6845-.135,1.0325,.067,.235,.344,.3485,.442,.627-.3735,.0355-.716,.0985-.966-.2445-.4175,.283-.849,.391-1.3315,.278-.43-.101-.715-.3515-.815-.779-.096-.4085,.0435-.754,.363-1.024,.1095-.0915,.225-.1755,.35-.2725-.173-.405-.354-.824,.0365-1.1915,.407-.3835,.8815-.2465,1.3315-.1585,.0995,.1835,.064,.343,.079,.515-.159,.068-.28-.0535-.4155-.0595-.4265-.0185-.6345,.2535-.456,.6415,.196,.425,.515,.7585,.848,1.0735,.2285-.0815,.0225-.359,.2395-.438m-.576,.9595c-.257-.2925-.493-.5615-.7255-.8265-.436,.2895-.5375,.5375-.358,.816,.207,.3215,.623,.341,1.0835,.0105" fill="#0f75b9"/>
  <path d="M43.28678,53.25294c.48,.2585,.561,.232,1.1395-.3495-.1045-.2425-.299-.4235-.498-.6005-.0345-.0305-.098-.08-.118-.068-.334,.192-.5165-.132-.7545-.232-.323-.136-.3725-.2775-.299-.605,.042-.185,.0885-.3715,.261-.577,.753,.3,1.211,.951,1.7335,1.575,.1655-.2985,.2445-.6035,.1305-.85-.1465-.317-.003-.5105,.141-.735,.0425-.0665,.09-.1295,.163-.234,.188,.2585,.4285,.418,.675,.5335,.032,.2205-.0745,.3795-.185,.4535-.409,.2725-.3895,.768-.6345,1.121-.0985,.1425-.014,.271,.0435,.403,.153,.3525,.1475,.707-.0015,1.089-.496,0-.9885-.004-1.4805,.0015-.2415,.003-.3565-.112-.353-.345,.0025-.174,.021-.3475,.037-.5805m1.0255,.284c.164-.0585,.292,.0235,.4165-.094-.013-.098-.0105-.2075-.151-.2495-.109,.057-.2035,.1305-.2655,.3435" fill="#0f75b9"/>
  <path d="M17.90723,56.32794c.248-.046,.4345-.052,.638,.001,.1025,.323-.045,.6615,.041,.9855,.1385,.074,.194-.0665,.284-.1095,.2225-.105,.4535-.1485,.6965-.1225,.5265,.0555,.774,.308,.7865,.8375,.0135,.5565,.003,1.114,.003,1.68-.238,.1115-.4525,.0575-.683,.044,0-.5085,.008-.998-.003-1.4875-.0065-.3025-.1205-.4445-.349-.498-.254-.059-.519,.059-.6395,.3015-.0485,.0975-.081,.2095-.093,.3175-.0295,.269-.047,.5395-.061,.8095-.0085,.1725-.0015,.346-.0015,.5445-.2205,.0535-.419,.04-.619,.0145v-3.318Z" fill="#0f75b9"/>
  <path d="M33.63768,57.19074c.2385-.06,.427-.045,.6545-.0215,.1735,.542,.351,1.095,.559,1.745,.32-.6115,.4245-1.203,.6745-1.7395,.1985-.037,.385-.035,.5695-.0045,.068,.1475-.0275,.2545-.07,.368-.325,.8645-.65,1.7285-.9825,2.59-.268,.696-.6545,.871-1.415,.64-.0235-.1265-.05-.264-.0735-.389,.0675-.1065,.1475-.057,.221-.0515,.5285,.0455,.8305-.3335,.6585-.849-.2115-.634-.442-1.262-.6635-1.893-.0415-.118-.08-.238-.1325-.395" fill="#0f75b9"/>
  <path d="M21.52004,59.63019c-.0575,.0105-.118,.03-.1795,.032-.141,.005-.2815,.0015-.432,.0015v-2.4745c.2855-.027,.5445-.144,.753,.1515,.243-.142,.4845-.2535,.7625-.258,.6095-.01,.9185,.2745,.945,.881,.0015,.0315,.001,.0635,.001,.095v1.535c-.2295,.112-.441,.07-.6755,.05,0-.2735-.0005-.524,.0005-.7745,0-.175,.006-.3505,.0025-.525-.009-.4415-.1415-.6395-.447-.676-.3005-.0355-.5835,.1925-.647,.574-.047,.28-.035,.57-.0515,.856-.0095,.172,.0265,.3475-.032,.532" fill="#0f75b9"/>
  <path d="M24.61688,51.37429c.7975-.006,1.318,.5,1.3355,1.2995,.018,.823-.5065,1.386-1.297,1.3915-.789,.006-1.3435-.555-1.343-1.359,.0005-.798,.5175-1.3255,1.3045-1.332m-.602,1.418c.004,.035,.0085,.1145,.0225,.1925,.061,.332,.2695,.531,.5655,.5455,.3035,.014,.513-.152,.6095-.489,.026-.0915,.05-.185,.0565-.2795,.0355-.4855-.2325-.85-.622-.854-.387-.0035-.6215,.291-.632,.7925v.092" fill="#0f75b9"/>
  <path d="M30.49869,58.40739c-.0015,.823-.506,1.34-1.295,1.327-.7825-.0135-1.308-.56-1.297-1.3485,.0105-.7745,.5275-1.297,1.2885-1.302,.795-.0055,1.3055,.5125,1.3035,1.3235m-.683,.006c.003-.4565-.1565-.7175-.475-.778-.4035-.0765-.684,.173-.7475,.6655-.062,.485,.1735,.87,.558,.912,.4,.0435,.661-.27,.6645-.7995" fill="#0f75b9"/>
  <path d="M26.36103,58.39764c.0035,.823-.4965,1.3425-1.2865,1.337-.786-.006-1.3075-.541-1.303-1.338,.0045-.784,.5065-1.302,1.2735-1.3135,.792-.0115,1.3125,.5085,1.316,1.3145m-1.9145,.0475c.007,.459,.2395,.7555,.603,.7675,.383,.0125,.6235-.2835,.6335-.7795,.01-.5105-.202-.8-.591-.807-.406-.007-.653,.306-.6455,.819" fill="#0f75b9"/>
  <path d="M15.54508,52.71124c-.3105,0-.579-.0085-.847,.0025-.265,.01-.537-.0505-.795,.0495,.0035,.7545,.357,.9245,1.4355,.687,.0615,.17,.0175,.33-.0335,.504-.3945,.1035-.7825,.1425-1.181,.064-.192-.038-.365-.109-.514-.234-.585-.4905-.57-1.719,.045-2.173,.4345-.3215,.9335-.328,1.4-.0945,.4535,.2275,.559,.6545,.49,1.1945m-.622-.3335c-.0905-.427-.22-.5695-.4855-.5655-.2885,.005-.456,.1895-.4975,.5655h.983Z" fill="#0f75b9"/>
  <path d="M19.88704,53.44759c.055,.198,.0055,.344-.064,.507-.3795,.107-.768,.149-1.165,.0595-.092-.021-.1865-.043-.272-.0815-.505-.227-.7525-.8145-.6415-1.5095,.097-.6065,.4495-.9575,1.0175-1.0365,.803-.1115,1.4755,.383,1.3095,1.3155h-1.587c-.157,.7525,.2905,.983,1.4025,.7455m-.451-1.0835c-.043-.379-.152-.523-.4055-.5495-.2925-.03-.488,.153-.5805,.554,.3305,.0385,.6575,.0475,.986-.0045" fill="#0f75b9"/>
  <path d="M12.63133,56.81034c-.2895,.0925-.5795-.031-.9115,.0525v2.737c-.2785,.0975-.509,.07-.7595,.036-.03-.928,.07-1.847,.0005-2.7695-.316-.0805-.6035,.017-.9075-.0335-.078-.163-.058-.3285-.019-.52h2.5875c.076,.1645,.062,.329,.0095,.4975" fill="#0f75b9"/>
  <path d="M64.28254,59.20914c-.262,.1385-.5465,.2625-.799,.0355-.2695-.2425-.226-.574-.1275-.8885,.092-.293,.2635-.545,.4655-.7695,.2505-.2795,.484-.262,.711,.034,.2085,.272,.325,.586,.3405,.926,.028,.6355-.1135,1.2335-.474,1.764-.304,.448-.708,.664-1.268,.523-.349-.087-.7065-.139-1.004-.4195,1.0765,.2565,1.7585-.262,2.2815-1.102,.0215-.0485,.0675-.101,.0095-.149-.0635-.053-.096,.0135-.1355,.046m.0085-.681c-.025-.2225-.117-.377-.3155-.384-.199-.0065-.3485,.105-.398,.33,.224,.1845,.4395,.262,.7135,.054" fill="#0f75b9"/>
  <path d="M15.13074,58.39684h-1.55c-.0925,.541,.157,.841,.6715,.858,.2395,.0075,.461-.099,.718-.119,.0335,.1785,.0115,.328-.0445,.4785-.324,.1345-.657,.137-.9915,.1085-.1905-.016-.3765-.064-.545-.163-.559-.3295-.7355-1.279-.3585-1.9305,.299-.5175,1.0835-.712,1.648-.4095,.3825,.206,.545,.612,.452,1.177m-1.5665-.3145c.324,.0255,.644,.0465,.966-.0115-.056-.4105-.1665-.538-.452-.539-.2955-.001-.448,.1575-.514,.5505" fill="#0f75b9"/>
  <path d="M12.68018,50.58819c.059,.1835,.0545,.323,.0115,.489-.287,.1275-.6175-.041-.9455,.094-.0705,.4595-.022,.9355-.037,1.408-.014,.457-.003,.9145-.003,1.389-.2575,.04-.473,.038-.736-.0025-.003-.9365,.0865-1.867,.033-2.798-.313-.107-.62-.0025-.9255-.0615-.1165-.159-.0505-.326-.049-.518h2.6515Z" fill="#0f75b9"/>
  <path d="M39.10573,52.26884c.084,.225,.0155,.372-.0025,.5215-.041,.3475,.0845,.544,.417,.644,.1055,.0325,.218,.0555,.3275,.0565,.5725,.003,1.1445-.001,1.717-.0065,.0925-.001,.193,.007,.273-.0685,.102-.249-.1155-.4075-.1885-.6295,.077-.1915,.1675-.3885,.334-.5465,.4185,.548,.431,1.32,.042,1.8265-.079,.103-.1815,.112-.296,.1115-.7315-.0015-1.4635,.0125-2.1945-.005-.562-.0135-.8255-.342-.772-.907,.0345-.3635,.1185-.621,.343-.997" fill="#0f75b9"/>
  <path d="M22.59644,53.46709c.051,.1565,.0205,.308-.025,.456-.67,.243-1.2495,.1525-1.5845-.245-.3525-.418-.397-1.302-.0905-1.8105,.2855-.474,.8105-.5985,1.6925-.394,.07,.1525,.0725,.3205,.0885,.525-.381-.0385-.752-.221-1.0665,.0825-.1845,.1775-.2375,.4045-.2345,.653,.0085,.651,.304,.8315,1.22,.733" fill="#0f75b9"/>
  <path d="M17.37743,59.12139c-.017,.192-.0295,.3325-.0415,.4675-.6295,.2605-1.254,.1655-1.5865-.2355-.357-.4305-.389-1.3085-.066-1.8055,.2935-.4515,.8515-.572,1.6495-.3535,.0705,.1415,.0815,.295,.0645,.484-.17,.0425-.3315-.049-.497-.0535-.4885-.0135-.776,.288-.765,.817,.011,.5105,.2835,.776,.775,.747,.1405-.009,.2795-.0395,.467-.0675" fill="#0f75b9"/>
  <path d="M42.08498,46.56379c.199-.2585,.379-.5355,.6665-.7375,.247,.186,.489,.3635,.8075,.4695,.182-.149,.3745-.3065,.59-.483,.3,.168,.5995,.336,.9275,.519-.1365,.345-.403,.5475-.612,.812-.373-.075-.6365-.357-.9855-.4715-.178,.16-.3525,.317-.5175,.4655-.4785-.1605-.5825-.229-.8765-.574" fill="#0f75b9"/>
  <path d="M58.70898,45.80549c.3195,.1825,.6175,.3525,.9495,.5415-.237,.2915-.442,.5435-.6505,.7995-.371-.072-.626-.3335-.9625-.4765-.168,.1495-.3425,.306-.5345,.478-.3285-.117-.634-.2605-.8705-.5405,.1285-.337,.3855-.545,.6525-.7825,.255,.161,.4855,.358,.7965,.461,.2195-.089,.3825-.289,.6195-.4805" fill="#0f75b9"/>
  <path d="M26.81883,56.34114c.245-.067,.43-.0575,.6475-.0165v3.277c-.211,.107-.4245,.058-.6475,.0465v-3.307Z" fill="#0f75b9"/>
  <path d="M16.95848,53.99494c-.1755,0-.2855,.002-.396-.0005-.0785-.0015-.157-.0085-.252-.0135v-3.383c.2275-.0615,.4295-.026,.648-.037v3.434Z" fill="#0f75b9"/>
  <path d="M62.05494,59.53059c-.0995-.8315-.2095-1.6625-.293-2.496-.0365-.362,.245-.592,.454-.8595,.1135,1.1285,.474,2.259-.161,3.3555" fill="#0f75b9"/>
  <path d="M51.75393,46.59649q-.253,.352-.6925,.5405c-.202-.156-.4445-.2755-.6205-.5125,.107-.309,.365-.4565,.6115-.6295,.262,.174,.521,.322,.7015,.6015" fill="#0f75b9"/>
  <path d="M58.15944,56.21759c.1545,.079,.334,.141,.4725,.2735q-.292,.4825-.893,.21c-.151,.008-.208,.1945-.3735,.1985-.171-.0255-.3045-.136-.465-.2465,.059-.2035,.211-.31,.37-.4385,.1535,.074,.307,.1475,.438,.21,.203,.0075,.26-.2165,.451-.207" fill="#0f75b9"/>
  <path d="M55.75174,56.25909c.226,.077,.3735,.1645,.5245,.286-.034,.184-.189,.2725-.306,.4055-.218-.029-.3745-.1785-.566-.2415-.167-.0115-.2245,.1635-.3925,.221-.156-.031-.318-.1095-.4725-.2585,.0945-.162,.21-.279,.3675-.3825,.29,.168,.5845,.4195,.845-.03" fill="#0f75b9"/>
  <path d="M49.65918,60.49004c.0935-.1575,.183-.285,.315-.377,.1725,.001,.2605,.1805,.424,.192,.1655,.009,.2115-.179,.372-.2205,.167,.0495,.321,.1495,.4615,.29-.0555,.194-.17,.333-.353,.4385-.152-.0805-.3035-.16-.4655-.2455-.1035,.0775-.2015,.1505-.2975,.2225-.1805-.0475-.3335-.118-.4565-.3" fill="#0f75b9"/>
  <path d="M58.47633,51.43634q-.3675,.241-.76-.0855c.0535-.1575,.1715-.2555,.3115-.334,.1795-.0165,.251,.1915,.429,.1955,.1585-.0125,.223-.2025,.384-.239,.177,.0625,.3385,.1555,.4895,.2645-.0445,.186-.19,.2645-.272,.3775-.228,.047-.3605-.1395-.582-.179" fill="#0f75b9"/>
  <path d="M39.05179,55.90654c.1855,.1045,.3075,.174,.409,.2315,.194,.028,.2465-.1605,.3945-.1975,.1805,.035,.322,.153,.476,.2365-.048,.203-.19,.284-.28,.3935-.227,.034-.355-.159-.5675-.184-.0855,.0565-.1875,.124-.2795,.1845-.1765-.04-.306-.127-.4425-.223-.0015-.22,.2125-.2615,.29-.4415" fill="#0f75b9"/>
  <path d="M40.50929,51.63994c-.2235,.246-.4525,.181-.689-.0685,.0305-.156,.167-.237,.275-.332,.1885-.025,.2775,.17,.4695,.1685,.113-.0035,.157-.174,.309-.1865,.151,.0515,.314,.1075,.4205,.2595-.0585,.1625-.176,.2605-.2875,.336-.2-.0025-.3105-.1485-.4975-.177" fill="#0f75b9"/>
  <path d="M53.27419,56.66389c-.134,.205-.287,.3105-.472,.3975-.2075-.048-.3405-.204-.5-.362,.081-.224,.261-.343,.4615-.477,.202,.0995,.3505,.2555,.5105,.4415" fill="#0f75b9"/>
  <path d="M70.12919,58.82894c5.991-5.9525,11.8705-11.9465,17.8595-17.769,.1285,.026,.1545,.063,.1565,.1125,.0725,1.802,.121,3.6035-.27399,5.38-.246,1.1075-.68001,2.154-1.07451,3.213-.063,.1695-.19949,.286-.3295,.404-1.0385,.9435-2.0195,1.9475-3.013,2.938-1.417,1.4115-2.87749,2.778-4.25249,4.232-.192,.2035-.445,.302-.691,.415-2.0395,.9365-4.192,1.281-6.42,1.2425-.63-.0115-1.264,.0325-1.9615-.168" fill="#fff"/>
  <path d="M88.24099,56.32794c0,1.494-1.224,2.8155-2.6645,2.752-1.674-.0735-2.732-1.097-2.761-2.803-.021-1.262,.9615-2.5285,2.6735-2.5495,1.3455-.0165,2.7055,.9395,2.752,2.6005" fill="#fff"/>
</svg>